<svg xmlns="http://www.w3.org/2000/svg" version="1.0" width="512.000000pt" height="512.000000pt" viewBox="0 0 512.000000 512.000000" preserveAspectRatio="xMidYMid meet">
<metadata fill="#61a4f9">
Created by potrace 1.16, written by Peter Selinger 2001-2019
</metadata>
<g transform="translate(0.000000,512.000000) scale(0.100000,-0.100000)" fill="#61a4f9" stroke="none">
<path d="M2490 4688 c-230 -24 -482 -123 -548 -215 -31 -43 -38 -67 -61 -194 -21 -114 -115 -415 -144 -460 -9 -13 -23 -55 -33 -94 -9 -38 -22 -76 -28 -83 -29 -30 -326 -62 -594 -62 -112 0 -139 -3 -171 -20 -51 -25 -96 -82 -122 -150 -31 -81 -23 -205 19 -292 98 -205 308 -341 667 -433 72 -18 177 -41 234 -51 l104 -18 18 -41 c43 -97 52 -154 53 -345 1 -230 3 -234 126 -300 89 -47 184 -131 214 -188 l16 -32 -47 19 c-177 70 -260 104 -287 117 l-31 15 35 -33 c21 -20 93 -60 177 -98 98 -45 136 -67 125 -72 -11 -4 0 -8 28 -9 31 -2 18 -5 -40 -9 l-85 -6 92 -2 c77 -2 100 -6 139 -27 54 -29 87 -31 164 -10 71 19 120 19 216 -1 151 -31 223 -3 301 119 69 108 94 135 185 196 116 79 124 94 131 279 3 81 11 171 17 200 l12 52 50 0 c50 0 50 0 44 -27 -4 -16 -29 -49 -56 -74 -51 -49 -53 -59 -11 -59 21 0 23 -2 11 -11 -11 -8 -9 -9 10 -3 53 14 90 68 90 132 l0 39 133 6 c254 9 429 89 574 260 141 166 263 451 263 613 0 97 -45 166 -142 215 -63 32 -171 56 -338 73 -223 24 -323 36 -342 42 -11 3 -18 15 -18 29 0 13 -5 36 -11 52 -6 15 -17 62 -25 103 -26 144 -84 334 -133 435 -56 115 -141 229 -209 280 -161 124 -450 177 -772 143z m305 -38 c293 -28 446 -104 560 -280 49 -74 89 -163 83 -181 -2 -7 -33 28 -67 79 -58 85 -120 152 -140 152 -16 0 -20 -28 -6 -47 25 -32 15 -39 -10 -8 -30 37 -32 22 -4 -25 18 -28 18 -32 4 -20 -10 8 -26 33 -36 55 l-19 40 0 -42 c0 -36 7 -50 50 -99 87 -99 147 -137 253 -159 18 -4 27 -12 27 -25 0 -18 -2 -18 -38 -6 -114 41 -236 135 -302 233 -38 58 -40 42 -2 -18 38 -59 178 -189 234 -216 25 -13 62 -23 82 -23 20 0 36 -2 36 -4 0 -2 9 -49 21 -105 11 -57 19 -105 16 -107 -2 -2 -32 20 -66 51 -68 61 -91 73 -45 23 l29 -31 -59 31 c-33 18 -61 30 -63 28 -3 -2 43 -39 101 -82 58 -43 104 -80 102 -81 -2 -2 -38 17 -80 42 -142 87 -315 145 -555 186 -161 28 -407 30 -556 5 -187 -31 -425 -104 -502 -154 -21 -13 -23 -13 -23 2 0 10 5 37 11 61 10 38 17 47 67 74 32 17 53 31 47 31 -5 0 -30 -11 -54 -25 -52 -30 -50 -30 -44 -6 2 10 14 23 26 29 12 5 47 21 77 36 108 50 270 204 270 256 0 8 -9 1 -19 -16 -10 -17 -33 -41 -50 -53 -47 -33 -263 -133 -259 -119 3 7 51 33 109 59 66 29 120 61 147 86 39 36 43 45 40 79 -2 22 -6 37 -9 34 -3 -3 -14 2 -24 10 -17 14 -17 13 1 -15 l19 -30 -31 25 c-17 14 -30 28 -28 31 2 3 -23 2 -54 -2 -47 -6 -62 -13 -83 -39 -15 -17 -31 -46 -38 -63 l-11 -32 5 40 c9 74 26 116 63 153 89 89 337 169 572 185 96 7 118 7 225 -3z m-856 -564 c-10 -9 -69 -36 -69 -32 0 7 52 35 64 36 5 0 7 -2 5 -4z m464 -113 c-7 -2 -21 -2 -30 0 -10 3 -4 5 12 5 17 0 24 -2 18 -5z m-93 -15 c-130 -28 -365 -109 -485 -167 -87 -43 -99 -39 -22 6 114 69 430 172 522 171 24 0 20 -2 -15 -10z m580 -118 c31 -6 15 -6 -50 -2 -52 4 -167 7 -255 7 -104 0 -141 2 -105 6 68 9 349 1 410 -11z m-572 5 c-3 -3 -45 -12 -94 -21 -49 -8 -141 -29 -204 -46 -63 -17 -137 -32 -165 -33 l-50 -2 50 22 c62 28 127 42 304 65 158 21 166 22 159 15z m607 -61 c182 -25 593 -119 615 -141 3 -3 -22 -2 -55 1 -129 12 4 -13 175 -34 96 -11 231 -27 300 -36 338 -41 469 -113 470 -260 0 -123 -105 -389 -208 -525 -132 -173 -312 -279 -500 -294 l-67 -5 45 15 45 15 -40 -5 c-22 -2 -69 -7 -105 -10 l-65 -6 85 29 c47 16 110 32 140 35 58 7 197 68 240 106 22 19 20 19 -15 -3 -72 -44 -192 -86 -268 -92 -40 -3 -119 -17 -175 -30 -152 -35 -156 -28 -8 15 73 21 123 40 114 43 -9 4 -33 2 -54 -3 -49 -11 -54 -11 -54 0 0 5 21 18 48 30 37 17 40 21 17 17 -16 -3 -48 -8 -70 -11 -35 -4 -32 -2 18 14 80 26 81 32 6 26 l-64 -5 55 20 55 19 -50 1 -50 1 68 19 c38 10 71 21 74 24 4 3 -20 6 -53 6 -32 0 -77 6 -99 12 l-40 12 55 7 55 6 -60 2 c-60 3 -59 3 60 26 156 30 216 51 208 72 -4 11 -2 14 5 9 7 -4 12 -4 12 -1 0 12 -33 70 -49 87 -9 9 -27 35 -41 58 l-25 42 -5 -59 c-3 -32 -11 -68 -17 -79 -15 -27 -80 -84 -95 -84 -6 0 4 10 22 23 19 12 42 37 53 55 26 45 33 136 14 192 l-16 45 19 -24 c11 -12 17 -28 13 -34 -3 -6 -1 -7 5 -3 6 4 18 -5 26 -21 20 -36 20 -17 1 38 l-15 44 25 -30 c23 -28 50 -78 74 -135 l10 -25 0 30 c0 17 -10 56 -23 87 -27 67 -19 68 19 3 38 -66 65 -151 66 -209 0 -45 2 -48 10 -26 14 34 2 152 -22 214 -10 27 -17 51 -15 53 7 7 47 -104 59 -166 8 -36 16 -61 19 -55 6 10 -8 130 -18 145 -3 5 -3 9 0 9 10 0 37 -62 46 -103 l8 -42 1 40 c1 59 -40 137 -111 212 -121 126 -301 226 -566 313 -373 123 -626 138 -977 59 -94 -22 -395 -112 -453 -136 -58 -24 -46 -7 15 22 155 74 315 123 503 155 88 15 97 18 55 19 -81 1 -239 -26 -336 -59 -104 -35 -455 -199 -555 -260 -37 -22 -68 -39 -70 -37 -7 7 90 83 146 115 78 45 53 40 -38 -8 -43 -22 -106 -66 -142 -98 -69 -63 -107 -83 -107 -58 0 9 4 13 9 10 4 -3 8 0 8 5 0 6 4 10 8 8 5 -1 33 25 63 58 l54 59 -47 -33 c-26 -19 -76 -64 -112 -102 -84 -87 -157 -110 -239 -76 -39 17 -55 35 -74 84 l-14 38 7 -40 c9 -59 34 -95 79 -116 36 -17 38 -19 13 -19 -39 0 -111 76 -128 134 -14 53 -7 139 16 173 8 13 32 32 54 43 l39 20 -21 -47 c-24 -54 -22 -135 6 -174 l17 -24 -7 40 c-12 81 29 165 94 192 19 8 82 17 141 21 99 6 102 7 51 13 -85 11 -261 10 -300 -1 -19 -5 -48 -20 -63 -32 -25 -21 -30 -34 -44 -131 l-15 -108 32 -65 c56 -115 169 -214 345 -302 81 -41 295 -118 395 -143 30 -7 47 -15 38 -17 -31 -6 -180 29 -334 80 -289 94 -467 230 -536 411 -29 73 -29 177 -1 240 26 56 36 62 17 10 -7 -21 -13 -51 -13 -68 0 -25 2 -22 17 20 19 55 63 116 101 142 15 9 52 17 90 19 36 2 156 9 266 14 122 6 235 18 290 29 80 17 453 139 431 140 -4 1 -64 -15 -133 -35 -69 -19 -127 -34 -129 -31 -9 9 116 57 211 81 286 71 648 90 940 50z m23 -272 c106 -24 309 -89 317 -103 4 -5 -19 -9 -52 -9 -113 0 -249 -47 -323 -110 -33 -29 -32 -29 40 9 80 43 172 71 230 71 58 0 121 -38 147 -90 31 -61 31 -137 1 -176 -18 -23 -19 -27 -5 -21 15 6 17 -2 17 -76 0 -45 5 -109 10 -142 9 -54 15 -64 60 -106 54 -50 59 -68 35 -127 -36 -84 -93 -113 -179 -88 -64 19 -96 20 -130 5 -30 -14 -56 -65 -56 -111 0 -25 -3 -29 -10 -18 -21 32 -11 79 26 119 46 51 91 67 149 52 74 -19 123 -14 150 14 15 14 25 36 25 52 0 28 0 28 -18 -7 -27 -56 -61 -66 -146 -46 -39 9 -89 16 -111 16 -46 0 -98 -28 -116 -62 -10 -19 -6 -17 25 10 20 17 40 32 44 32 4 0 -5 -10 -20 -23 -52 -44 -64 -109 -28 -154 26 -33 26 -51 -1 -27 -17 15 -23 16 -40 6 -17 -11 -24 -10 -46 7 -22 18 -28 19 -50 7 -23 -11 -28 -10 -49 11 -28 28 -58 29 -84 3 -19 -19 -22 -19 -50 -5 -38 20 -52 19 -82 -5 -25 -19 -26 -19 -43 0 -20 22 -46 25 -76 10 -15 -8 -25 -6 -48 11 -33 24 -57 20 -94 -16 -21 -22 -26 -23 -37 -10 -16 20 -39 19 -62 -2 -26 -24 -24 1 7 61 19 37 25 65 25 113 0 69 -8 93 -47 134 l-24 27 44 21 c30 15 54 20 74 16 21 -5 24 -4 13 4 -22 16 -65 13 -108 -5 -20 -9 -59 -22 -87 -29 -27 -8 -41 -14 -30 -14 30 -2 94 -43 115 -77 11 -16 20 -24 20 -19 0 6 -6 17 -12 25 -11 12 -10 12 4 1 30 -23 31 -70 4 -156 -14 -44 -26 -89 -26 -100 0 -18 -1 -18 -16 -3 -16 15 -18 15 -36 -5 l-19 -22 4 27 c2 15 0 25 -4 22 -5 -3 -9 -12 -9 -20 0 -8 -5 -12 -10 -9 -7 4 -8 11 -1 18 19 24 43 129 37 162 -8 40 -56 85 -91 85 -14 0 -48 -9 -77 -21 -64 -25 -130 -27 -164 -4 -37 24 -64 75 -64 119 0 34 6 46 45 81 60 57 75 95 76 202 0 48 4 106 8 128 6 35 8 37 15 18 4 -13 15 -23 25 -23 16 0 19 -11 23 -74 8 -131 59 -180 183 -180 171 0 356 91 371 182 5 34 8 37 37 36 28 -1 32 -5 29 -25 -1 -13 -17 -46 -36 -74 -46 -69 -52 -80 -37 -70 7 4 33 34 57 67 32 43 44 70 44 94 0 46 26 45 34 0 4 -19 23 -59 43 -88 51 -75 82 -104 39 -36 -20 31 -36 67 -36 80 0 19 -2 20 -10 8 -9 -13 -10 -13 -10 0 0 8 -3 25 -6 38 -5 16 -2 22 10 22 10 0 16 -8 16 -21 0 -17 3 -19 13 -11 10 9 16 1 25 -36 10 -38 27 -60 84 -115 94 -89 193 -139 279 -141 59 -1 62 0 93 36 49 56 77 172 62 253 -11 56 -68 112 -134 131 -71 21 -121 14 -223 -31 -94 -41 -158 -46 -189 -15 -33 33 -24 85 24 139 l21 24 -23 -12 c-30 -16 -58 -63 -66 -112 -4 -22 -13 -42 -22 -46 -24 -9 -27 3 -9 31 23 35 12 78 -33 128 -36 39 -109 85 -120 74 -3 -3 -1 -6 5 -6 21 0 104 -64 118 -91 32 -61 7 -118 -58 -134 -49 -13 -92 3 -153 57 -78 68 -131 91 -214 92 -108 1 -190 -52 -206 -133 -8 -40 -18 -39 -39 5 -20 42 -15 81 20 161 27 61 36 66 182 109 172 50 201 53 463 50 200 -3 262 -8 338 -24z m383 -213 l-9 -34 -1 42 c-1 23 2 50 7 60 12 29 15 -28 3 -68z m-1428 -16 c-4 -74 -23 -201 -33 -227 -6 -19 -9 -17 -29 19 -24 43 -23 39 3 -43 22 -64 15 -92 -8 -37 -25 59 -46 153 -46 212 0 52 0 52 57 92 31 23 57 41 58 41 1 0 0 -26 -2 -57z m1532 24 c35 -19 41 -29 49 -71 14 -69 -5 -179 -44 -265 -18 -39 -39 -76 -46 -82 -23 -19 -17 4 21 82 47 98 45 121 -2 28 l-38 -74 -6 70 c-15 163 -5 335 20 335 3 0 24 -10 46 -23z m-2087 -47 c-7 -10 -14 -17 -17 -15 -4 4 18 35 25 35 2 0 -1 -9 -8 -20z m192 -24 c0 -8 -128 -86 -195 -119 -38 -19 -94 -42 -124 -51 -61 -18 -156 -21 -166 -6 -4 6 13 10 42 10 79 0 160 27 303 100 146 75 140 72 140 66z m34 -104 c-84 -79 -248 -152 -340 -152 -41 0 -27 7 69 35 102 29 203 78 267 128 63 50 64 45 4 -11z m-138 -31 c-9 -14 -152 -71 -178 -71 -13 0 13 13 57 28 44 16 89 33 100 40 25 14 28 15 21 3z m195 -18 c-21 -41 -107 -100 -191 -133 -28 -11 -50 -18 -50 -15 0 2 40 25 88 50 48 25 103 61 122 80 38 39 45 43 31 18z m60 -59 c18 -20 25 -31 14 -24 -18 11 -61 60 -52 60 1 0 19 -16 38 -36z m-478 -1 c-7 -2 -19 -2 -25 0 -7 3 -2 5 12 5 14 0 19 -2 13 -5z m513 -70 c16 -11 15 -11 -9 -3 -15 5 -41 17 -57 25 -46 24 -36 11 19 -25 27 -17 55 -38 63 -47 22 -27 -73 25 -109 60 -31 29 -32 32 -16 49 15 17 17 16 53 -15 20 -17 45 -38 56 -44z m2011 -10 c-3 -10 -5 -4 -5 12 0 17 2 24 5 18 2 -7 2 -21 0 -30z m-2429 0 c-10 -2 -28 -2 -40 0 -13 2 -5 4 17 4 22 1 32 -1 23 -4z m1886 -40 c-11 -15 -27 -29 -35 -32 -7 -2 0 12 16 31 34 40 49 41 19 1z m467 14 c-10 -9 -11 -8 -5 6 3 10 9 15 12 12 3 -3 0 -11 -7 -18z m-2216 -7 c-11 -5 -29 -8 -40 -8 -16 0 -15 2 5 8 34 11 60 11 35 0z m3 -47 c-10 -2 -28 -2 -40 0 -13 2 -5 4 17 4 22 1 32 -1 23 -4z m527 -453 c35 -131 67 -205 108 -248 35 -37 77 -62 103 -62 14 0 12 7 -13 33 -17 17 -34 43 -38 57 -6 23 -4 22 20 -7 15 -18 33 -33 42 -33 8 0 28 -11 45 -25 33 -28 48 -31 66 -13 9 9 17 7 36 -11 15 -14 34 -21 48 -20 14 2 37 -4 51 -14 28 -18 61 -11 69 15 3 9 15 4 37 -15 40 -33 51 -34 85 -2 24 22 29 24 42 10 23 -23 61 -18 79 9 l16 24 25 -25 25 -25 26 23 25 24 15 -22 c21 -31 50 -29 71 6 14 23 20 26 34 17 14 -8 23 -5 48 19 36 35 38 25 5 -32 -28 -51 -22 -53 32 -14 79 58 132 146 168 286 24 96 33 100 29 13 l-4 -73 13 45 c12 42 46 113 47 99 0 -4 -5 -30 -10 -60 -6 -29 -15 -113 -20 -186 -6 -81 -15 -144 -24 -162 -9 -16 -51 -54 -95 -84 -84 -60 -124 -103 -190 -209 -23 -37 -57 -76 -75 -88 -40 -24 -104 -26 -191 -5 -77 19 -128 19 -190 -1 -72 -22 -135 -21 -174 2 -18 11 -56 54 -86 100 -70 106 -110 144 -223 211 -121 71 -125 79 -123 244 2 114 -9 229 -26 284 -5 17 -4 18 10 6 14 -11 18 -11 23 3 4 9 8 16 9 14 2 -2 15 -50 30 -108z m483 -66 c7 -21 12 -52 10 -69 -3 -29 -4 -30 -62 -33 -32 -2 -63 1 -69 7 -12 12 17 100 45 136 18 24 22 25 42 12 11 -8 27 -32 34 -53z m364 49 c21 -25 38 -79 38 -124 l0 -39 -45 0 -45 0 0 83 c0 46 3 87 7 90 11 12 29 8 45 -10z m-247 -23 c8 -16 18 -57 22 -91 l6 -61 -49 7 c-27 4 -52 10 -56 14 -16 14 33 161 53 161 5 0 15 -13 24 -30z m143 -20 c12 -24 22 -61 22 -82 l0 -38 -56 0 -57 0 6 75 c3 41 8 79 12 85 15 24 50 5 73 -40z m-568 -26 c0 -49 -2 -55 -15 -44 -17 14 -20 53 -5 81 17 30 20 23 20 -37z m156 -22 l7 -53 -34 3 c-28 2 -35 7 -37 29 -2 15 4 44 13 65 13 33 17 36 30 23 7 -8 17 -38 21 -67z m643 40 c5 -9 12 -36 16 -59 l7 -43 -41 0 -41 0 0 63 c0 35 3 67 6 70 9 9 42 -10 53 -31z m-739 -33 c0 -37 -4 -49 -15 -49 -23 0 -28 23 -15 69 14 54 30 43 30 -20z m117 39 c-3 -8 -6 -5 -6 6 -1 11 2 17 5 13 3 -3 4 -12 1 -19z m692 8 c6 -8 14 -37 18 -65 5 -46 4 -51 -14 -51 -16 0 -22 9 -27 38 -13 81 -4 111 23 78z m67 -20 c8 -31 2 -71 -11 -71 -5 0 -11 21 -13 48 -3 49 13 66 24 23z m9 -118 c-11 -36 -25 -45 -25 -17 0 27 7 39 22 39 5 0 6 -10 3 -22z m-875 -13 c0 -30 -15 -33 -30 -6 -14 27 -13 31 10 31 15 0 20 -7 20 -25z m68 2 c5 -25 -6 -67 -18 -67 -5 0 -12 12 -16 28 -3 15 -8 35 -11 45 -4 15 0 18 18 15 13 -2 25 -11 27 -21z m77 7 c17 -4 20 -13 20 -52 -2 -75 -39 -56 -60 31 -8 28 -1 32 40 21z m670 -26 c-9 -40 -13 -48 -26 -48 -14 0 -11 68 4 73 25 11 28 6 22 -25z m-555 -38 c0 -48 -3 -60 -16 -60 -15 0 -35 39 -48 93 -6 26 -4 27 29 27 l35 0 0 -60z m390 45 c0 -9 -7 -32 -15 -52 -13 -30 -17 -33 -30 -23 -9 7 -15 29 -15 51 0 37 2 39 30 39 20 0 30 -5 30 -15z m90 -4 c0 -26 -20 -81 -30 -81 -13 0 -17 10 -25 58 -7 42 -7 42 24 42 24 0 31 -4 31 -19z m-326 3 c43 -17 -7 -124 -51 -110 -20 6 -42 43 -58 94 -6 21 -4 22 44 22 27 0 56 -3 65 -6z m131 -21 c-9 -39 -33 -73 -50 -73 -11 0 -15 13 -15 50 l0 50 36 0 c34 0 36 -1 29 -27z" fill="#61a4f9"/>
<path d="M2516 4569 c-123 -13 -113 -20 23 -14 68 3 158 5 199 5 42 0 73 2 71 4 -10 9 -222 13 -293 5z" fill="#61a4f9"/>
<path d="M2660 4305 c74 -7 171 -18 214 -24 44 -6 81 -9 83 -7 3 2 -29 12 -69 22 -49 12 -121 18 -218 20 l-145 3 135 -14z" fill="#61a4f9"/>
<path d="M2480 4214 c-111 -17 -224 -43 -217 -50 2 -2 39 4 83 12 108 23 370 22 533 0 130 -17 163 -16 85 3 -131 33 -377 51 -484 35z" fill="#61a4f9"/>
<path d="M2485 4121 c-77 -9 -228 -41 -222 -47 2 -2 37 3 78 11 153 31 377 30 583 -2 68 -10 34 6 -45 22 -92 18 -300 26 -394 16z" fill="#61a4f9"/>
<path d="M3085 4091 c61 -21 127 -46 148 -55 20 -9 37 -14 37 -12 0 11 -72 47 -140 69 -125 41 -163 40 -45 -2z" fill="#61a4f9"/>
<path d="M3405 4031 c8 -15 65 -44 72 -37 3 2 -14 14 -37 26 -23 12 -39 17 -35 11z" fill="#61a4f9"/>
<path d="M2378 3713 c7 -3 16 -2 19 1 4 3 -2 6 -13 5 -11 0 -14 -3 -6 -6z" fill="#61a4f9"/>
<path d="M2218 3690 c-94 -20 -234 -64 -258 -81 -12 -9 -12 -10 4 -5 23 8 297 81 351 94 73 18 -6 12 -97 -8z" fill="#61a4f9"/>
<path d="M2483 3623 c9 -2 25 -2 35 0 9 3 1 5 -18 5 -19 0 -27 -2 -17 -5z" fill="#61a4f9"/>
<path d="M3255 3591 c344 -131 574 -299 668 -489 39 -80 42 -91 42 -169 0 -81 1 -83 13 -51 21 49 11 152 -19 218 -40 85 -140 202 -237 276 -98 74 -275 164 -430 218 -137 48 -164 45 -37 -3z" fill="#61a4f9"/>
<path d="M2988 3603 c7 -3 16 -2 19 1 4 3 -2 6 -13 5 -11 0 -14 -3 -6 -6z" fill="#61a4f9"/>
<path d="M3130 3565 c63 -18 132 -41 154 -50 21 -9 40 -14 43 -12 5 6 -148 62 -225 82 -108 27 -89 15 28 -20z" fill="#61a4f9"/>
<path d="M3555 3540 c11 -5 27 -9 35 -9 9 0 8 4 -5 9 -11 5 -27 9 -35 9 -9 0 -8 -4 5 -9z" fill="#61a4f9"/>
<path d="M4046 3503 c-3 -3 18 -17 47 -30 66 -31 62 -30 64 -18 2 5 -3 10 -10 10 -6 0 -31 10 -53 22 -23 12 -44 19 -48 16z" fill="#61a4f9"/>
<path d="M3909 3451 c215 -122 270 -247 207 -471 l-7 -25 15 25 c27 43 66 179 66 227 0 92 -58 160 -194 224 -106 50 -164 63 -87 20z" fill="#61a4f9"/>
<path d="M4223 3418 c26 -52 35 -207 18 -288 -14 -65 -7 -78 10 -19 20 68 18 225 -4 281 -10 25 -24 51 -31 58 -8 6 -4 -8 7 -32z" fill="#61a4f9"/>
<path d="M1233 3419 c-54 -26 -99 -77 -112 -126 -15 -55 -13 -75 4 -29 18 51 61 103 119 143 55 38 50 43 -11 12z" fill="#61a4f9"/>
<path d="M4286 3408 c25 -49 30 -165 10 -247 -19 -76 -71 -212 -117 -303 -16 -32 -27 -58 -25 -58 11 0 89 125 117 188 45 100 79 226 79 294 0 65 -25 124 -61 146 -19 12 -20 12 -3 -20z" fill="#61a4f9"/>
<path d="M1345 3336 c-22 -13 -51 -39 -64 -58 l-25 -33 40 35 c21 19 53 45 69 57 40 29 30 29 -20 -1z" fill="#61a4f9"/>
<path d="M3923 3220 c9 -14 29 -46 43 -73 15 -26 29 -45 31 -43 7 7 -34 78 -63 111 -21 23 -23 24 -11 5z" fill="#61a4f9"/>
<path d="M3711 3125 c0 -5 6 -21 14 -35 8 -14 14 -20 14 -15 0 6 -6 21 -14 35 -8 14 -14 21 -14 15z" fill="#61a4f9"/>
<path d="M3648 2803 c7 -3 16 -2 19 1 4 3 -2 6 -13 5 -11 0 -14 -3 -6 -6z" fill="#61a4f9"/>
<path d="M3578 2793 c6 -2 18 -2 25 0 6 3 1 5 -13 5 -14 0 -19 -2 -12 -5z" fill="#61a4f9"/>
<path d="M2055 3435 c-39 -14 -75 -46 -75 -68 0 -6 10 -1 23 10 50 46 111 59 199 43 89 -17 163 -56 214 -115 24 -27 44 -45 44 -39 0 22 -84 106 -129 128 -47 24 -172 56 -213 56 -13 -1 -41 -7 -63 -15z" fill="#61a4f9"/>
<path d="M2586 2978 c-8 -13 -24 -45 -36 -71 -12 -26 -35 -70 -52 -97 -35 -57 -40 -114 -14 -155 24 -36 43 -41 81 -21 54 29 84 123 85 262 0 79 -9 104 -37 104 -7 0 -19 -10 -27 -22z" fill="#61a4f9"/>
<path d="M2663 2984 c-11 -30 4 -288 20 -325 20 -50 51 -56 88 -19 33 33 37 72 13 135 -9 22 -26 74 -39 115 -13 41 -26 83 -30 93 -9 21 -44 22 -52 1z" fill="#61a4f9"/>
<path d="M2385 2931 c-27 -15 -84 -41 -125 -57 -81 -30 -73 -47 10 -19 45 15 170 88 170 100 0 8 -1 7 -55 -24z" fill="#61a4f9"/>
<path d="M1930 2908 c0 -7 7 -22 15 -32 13 -18 13 -22 -8 -44 l-22 -25 30 16 c17 8 64 18 105 22 157 14 192 43 49 41 -97 -1 -99 -2 -78 -18 l21 -18 -25 0 c-16 0 -36 13 -56 35 -17 20 -31 30 -31 23z" fill="#61a4f9"/>
<path d="M2859 2902 c17 -33 114 -90 196 -117 91 -29 112 -27 30 4 -76 29 -131 57 -188 98 -35 24 -45 28 -38 15z" fill="#61a4f9"/>
<path d="M2482 2857 c-15 -17 -42 -83 -42 -99 0 -7 14 13 31 46 29 56 34 81 11 53z" fill="#61a4f9"/>
<path d="M2770 2857 c0 -14 31 -69 36 -64 3 3 -4 20 -15 38 -12 19 -21 30 -21 26z" fill="#61a4f9"/>
<path d="M3300 2832 c0 -27 -27 -60 -68 -83 l-37 -20 35 5 c43 7 80 47 80 87 0 16 -2 29 -5 29 -3 0 -5 -8 -5 -18z" fill="#61a4f9"/>
<path d="M2880 2801 c76 -63 101 -75 150 -72 19 2 8 10 -50 40 -41 21 -86 41 -100 45 l-25 7 25 -20z" fill="#61a4f9"/>
<path d="M1816 2730 c9 -36 31 -58 70 -70 29 -10 46 -8 114 15 69 23 85 25 114 15 38 -12 91 -66 112 -114 l13 -31 1 40 c0 75 -59 135 -134 135 -19 0 -67 -12 -106 -26 -63 -24 -76 -25 -110 -15 -24 7 -46 23 -60 44 -18 28 -20 29 -14 7z" fill="#61a4f9"/>
<path d="M2955 2703 c-23 -22 -35 -57 -35 -99 0 -35 45 -160 62 -170 5 -3 2 11 -7 33 -32 75 -35 85 -35 138 0 43 5 60 26 84 27 32 18 44 -11 14z" fill="#61a4f9"/>
<path d="M2271 2614 c0 -11 3 -14 6 -6 3 7 2 16 -1 19 -3 4 -6 -2 -5 -13z" fill="#61a4f9"/>
<path d="M2376 2553 c-10 -32 -25 -70 -32 -85 -10 -18 -11 -28 -4 -28 15 0 47 75 56 128 9 59 1 52 -20 -15z" fill="#61a4f9"/>
<path d="M2597 2603 c-4 -3 -6 -34 -6 -67 l2 -61 8 65 c8 65 8 75 -4 63z" fill="#61a4f9"/>
<path d="M2671 2565 c-1 -24 7 -53 19 -72 26 -43 31 -42 15 5 -7 20 -18 53 -23 72 l-10 35 -1 -40z" fill="#61a4f9"/>
<path d="M2472 2569 c-5 -13 -12 -37 -16 -54 -11 -45 10 -18 23 29 12 44 7 62 -7 25z" fill="#61a4f9"/>
<path d="M2796 2555 c9 -40 29 -78 48 -94 11 -9 8 5 -10 45 -32 70 -48 92 -38 49z" fill="#61a4f9"/>
<path d="M2885 2538 c8 -40 22 -75 34 -83 16 -9 13 4 -15 60 -15 32 -22 40 -19 23z" fill="#61a4f9"/>
<path d="M2509 2463 c-13 -16 -12 -17 4 -4 9 7 17 15 17 17 0 8 -8 3 -21 -13z" fill="#61a4f9"/>
<path d="M1851 3129 c0 -13 4 -33 9 -44 7 -14 8 -8 3 20 -7 46 -13 59 -12 24z" fill="#61a4f9"/>
<path d="M3262 2280 c0 -14 2 -19 5 -12 2 6 2 18 0 25 -3 6 -5 1 -5 -13z" fill="#61a4f9"/>
<path d="M1981 2270 c-1 -8 12 -43 28 -77 31 -65 77 -105 136 -118 21 -5 15 1 -23 20 -60 31 -91 68 -121 140 -11 28 -20 43 -20 35z" fill="#61a4f9"/>
<path d="M3237 2201 c-9 -27 -36 -72 -59 -101 -28 -35 -35 -49 -21 -42 36 20 72 72 89 128 20 69 14 79 -9 15z" fill="#61a4f9"/>
<path d="M1951 2157 c-2 -79 43 -134 139 -171 57 -22 45 -10 -28 29 -62 33 -88 68 -101 137 l-9 43 -1 -38z" fill="#61a4f9"/>
<path d="M2311 2073 c0 -5 11 -30 25 -58 18 -37 23 -42 18 -20 -5 29 -5 29 15 11 12 -11 21 -25 21 -33 0 -7 5 -13 10 -13 6 0 10 16 10 36 0 30 2 34 14 25 19 -16 56 -96 56 -121 0 -11 5 -20 11 -20 8 0 9 15 4 47 -13 89 -50 131 -105 119 -20 -3 -33 1 -45 14 -18 20 -36 26 -34 13z" fill="#61a4f9"/>
<path d="M3175 2019 c-38 -27 -86 -66 -105 -87 -28 -29 -29 -31 -5 -11 17 15 57 44 90 66 49 33 110 86 94 82 -2 0 -35 -23 -74 -50z" fill="#61a4f9"/>
<path d="M2741 2033 c-19 -13 -42 -21 -50 -18 -32 13 -36 9 -39 -29 l-3 -38 22 21 c13 12 27 21 33 21 5 0 22 12 37 26 42 40 55 19 14 -22 -19 -19 -35 -42 -35 -50 0 -9 15 4 33 27 17 23 40 43 49 45 16 2 16 0 -2 -24 -22 -31 -34 -101 -21 -120 6 -10 10 -4 15 20 3 18 17 53 30 78 22 43 25 77 5 64 -6 -3 -20 1 -32 8 -20 13 -26 12 -56 -9z" fill="#61a4f9"/>
<path d="M2955 2044 c-11 -8 -33 -14 -50 -12 -27 3 -30 1 -31 -26 -1 -26 0 -27 11 -13 16 22 35 22 35 1 0 -11 11 -3 30 21 39 49 40 56 5 29z" fill="#61a4f9"/>
<path d="M2499 2018 c-9 -19 -9 -21 1 -11 11 10 23 5 62 -22 l48 -35 14 33 c16 38 14 42 -12 28 -14 -8 -28 -5 -55 9 -46 25 -44 25 -58 -2z" fill="#61a4f9"/>
<path d="M2267 1985 c41 -52 113 -122 113 -110 0 15 -77 102 -113 127 l-32 23 32 -40z" fill="#61a4f9"/>
<path d="M2938 1910 c-41 -27 -85 -76 -76 -85 2 -2 32 24 67 56 35 32 62 59 59 59 -2 0 -25 -14 -50 -30z" fill="#61a4f9"/>
<path d="M2228 1855 c23 -27 61 -75 85 -105 23 -30 59 -63 79 -73 32 -16 42 -16 80 -6 l43 13 -60 6 c-72 8 -103 26 -149 89 -19 25 -54 64 -77 86 l-43 40 42 -50z" fill="#61a4f9"/>
<path d="M3017 1848 c-13 -18 -38 -53 -55 -77 -45 -64 -76 -81 -147 -82 -73 -1 -47 -17 29 -18 43 -1 52 3 83 37 32 34 126 172 118 172 -2 0 -15 -15 -28 -32z" fill="#61a4f9"/>
<path d="M1245 2099 c21 -60 19 -137 -5 -177 -26 -42 -77 -73 -115 -70 -26 3 -30 -1 -33 -23 -2 -14 6 -37 18 -52 21 -27 87 -52 112 -42 8 3 106 -39 218 -93 113 -54 214 -102 225 -106 15 -6 -21 -25 -155 -83 -325 -139 -418 -170 -608 -198 -57 -8 -116 -22 -132 -30 -43 -22 -76 -69 -90 -125 -22 -91 10 -167 83 -200 81 -37 134 -24 252 60 155 111 240 161 439 260 199 98 566 260 589 260 11 0 386 -165 394 -174 2 -2 -13 -11 -34 -21 -709 -337 -891 -419 -1064 -481 -171 -61 -189 -84 -155 -196 18 -60 59 -113 111 -143 56 -33 91 -31 156 9 254 156 391 237 517 302 81 43 264 143 407 224 331 188 382 213 409 206 22 -5 593 -269 1023 -472 243 -115 301 -131 360 -100 63 32 102 121 82 184 -15 46 -72 75 -214 107 -223 51 -455 143 -835 331 l-185 91 50 26 51 25 294 -103 c543 -189 697 -252 830 -341 123 -81 162 -97 223 -91 54 5 88 30 118 89 23 44 24 70 5 107 -18 33 -53 49 -215 96 -175 51 -967 323 -959 330 2 2 89 33 193 70 105 37 231 83 280 102 71 28 105 36 161 37 61 1 77 5 113 30 l42 30 -28 14 c-108 55 -140 101 -121 181 18 81 -12 123 -100 137 -37 6 -44 4 -48 -12 -13 -48 -181 -145 -599 -345 -370 -178 -354 -170 -373 -194 -10 -11 -56 -37 -103 -58 l-87 -37 -98 41 c-117 47 -218 79 -248 79 -28 -1 24 -29 164 -87 120 -50 133 -59 99 -68 -16 -4 -48 5 -94 26 -84 38 -115 50 -115 44 0 -2 39 -23 88 -46 147 -70 72 -55 -96 19 -86 38 -202 84 -257 102 -55 17 -149 48 -210 67 -114 37 -593 228 -609 243 -13 13 19 57 56 76 31 16 32 16 50 -6 10 -12 18 -19 18 -16 0 17 -51 103 -72 122 -19 18 -172 104 -183 104 -2 0 2 -19 10 -41z m143 -71 c14 -12 16 -54 3 -63 -6 -3 -13 1 -18 9 -4 8 -10 15 -13 15 -3 0 -17 4 -32 10 -22 8 -28 17 -28 40 l0 30 38 -16 c20 -8 43 -20 50 -25z m2542 2 c0 -5 -4 -10 -10 -10 -5 0 -10 5 -10 10 0 6 5 10 10 10 6 0 10 -4 10 -10z m-8 -44 c6 -14 8 -31 5 -40 -10 -26 -286 -198 -547 -341 -69 -37 -137 -76 -153 -87 -15 -10 -33 -16 -39 -12 -7 4 -8 3 -4 -4 4 -7 5 -12 2 -12 -2 0 -12 -3 -22 -7 -13 -5 -15 -3 -9 8 4 8 5 11 1 7 -4 -3 -8 -10 -9 -14 -1 -4 -180 -97 -397 -205 -397 -198 -557 -285 -546 -296 3 -4 72 26 152 66 81 39 148 70 151 68 2 -2 -67 -39 -154 -81 -242 -117 -402 -200 -588 -302 -93 -51 -208 -110 -255 -130 -100 -43 -107 -48 -125 -88 -11 -26 -13 -28 -14 -9 -2 37 -38 110 -77 153 -31 34 -43 41 -67 37 -58 -8 5 30 118 71 156 57 216 84 925 417 351 165 653 313 676 331 23 18 81 51 130 72 175 77 641 311 729 366 50 30 93 55 98 56 4 0 12 -11 19 -24z m35 -255 c-262 -90 -588 -198 -577 -190 32 21 349 204 425 245 l80 44 42 -48 c24 -27 36 -49 30 -51z m-2404 5 c310 -132 314 -134 286 -144 -13 -6 -42 -17 -65 -26 l-40 -17 -140 65 c-76 35 -175 81 -219 101 l-79 38 29 23 c17 13 40 24 53 24 13 0 91 -29 175 -64z m557 -217 c210 -81 380 -155 395 -171 7 -8 5 -9 -5 -5 -81 31 -584 238 -588 242 -13 13 24 0 198 -66z m-226 32 c16 -6 -6 -20 -102 -70 -180 -92 -161 -90 43 3 44 21 91 35 105 34 19 -3 -2 -16 -90 -58 -238 -112 -611 -303 -726 -371 -65 -40 -156 -89 -201 -111 -93 -45 -128 -45 -163 0 l-21 26 50 31 c28 17 111 57 186 90 74 32 133 60 131 62 -6 7 -183 -60 -285 -108 l-104 -49 6 46 c10 95 55 125 227 153 70 11 166 34 216 50 69 22 531 212 659 271 24 11 44 11 69 1z m1826 -209 c113 -39 284 -98 380 -132 96 -34 231 -77 299 -96 143 -39 171 -54 171 -90 0 -68 -53 -124 -117 -124 -24 0 -217 99 -209 107 2 2 23 -4 47 -13 68 -24 129 -42 129 -38 0 10 -223 106 -470 201 -237 91 -649 244 -702 260 -10 3 -18 10 -18 15 0 6 7 7 16 4 8 -3 44 -10 79 -16 35 -6 72 -13 82 -15 10 -3 -4 5 -30 17 -27 13 -46 26 -42 30 10 9 152 -31 385 -110z m-607 -78 c137 -69 406 -191 542 -246 152 -61 259 -96 380 -124 133 -30 161 -41 180 -68 32 -44 8 -123 -45 -151 -60 -31 -96 -21 -292 79 -160 82 -406 202 -873 426 -71 34 -125 64 -118 67 6 2 83 -28 170 -67 209 -94 191 -87 174 -67 -7 9 -54 42 -102 73 -49 32 -88 59 -85 61 2 2 49 -16 105 -41 55 -25 101 -43 101 -41 0 2 -58 36 -130 75 -118 65 -141 80 -125 80 3 0 56 -25 118 -56z m-1793 -664 c16 -31 12 -50 -16 -62 -23 -11 -29 -10 -45 11 -24 29 -24 67 -2 80 21 11 48 -1 63 -29z" fill="#61a4f9"/>
<path d="M3380 1655 c-146 -74 -266 -135 -268 -135 -2 0 0 5 3 10 13 22 -18 8 -82 -37 -38 -25 -149 -86 -248 -133 -347 -169 -517 -250 -520 -250 -2 0 -59 -30 -127 -66 -128 -69 -318 -189 -318 -200 0 -3 12 2 28 12 133 87 430 246 562 301 128 52 559 263 643 314 44 27 86 49 92 49 24 0 484 238 514 266 18 17 -50 -15 -279 -131z" fill="#61a4f9"/>
<path d="M2325 1098 c-89 -56 -338 -199 -407 -234 -38 -19 -68 -36 -68 -39 0 -5 70 26 215 95 61 29 115 52 120 51 5 -2 7 1 3 5 -4 4 27 31 70 60 129 90 168 126 67 62z" fill="#61a4f9"/>
<path d="M1789 823 c-13 -16 -12 -17 4 -4 16 13 21 21 13 21 -2 0 -10 -8 -17 -17z" fill="#61a4f9"/>
<path d="M1810 810 c-8 -5 -10 -10 -5 -10 6 0 17 5 25 10 8 5 11 10 5 10 -5 0 -17 -5 -25 -10z" fill="#61a4f9"/>
<path d="M1725 770 c-3 -6 1 -7 9 -4 18 7 21 14 7 14 -6 0 -13 -4 -16 -10z" fill="#61a4f9"/>
<path d="M1440 659 c-30 -10 -59 -24 -64 -29 -6 -6 16 -1 49 10 33 11 64 25 69 30 13 13 12 12 -54 -11z" fill="#61a4f9"/>
<path d="M3460 1380 c8 -5 20 -10 25 -10 6 0 3 5 -5 10 -8 5 -19 10 -25 10 -5 0 -3 -5 5 -10z" fill="#61a4f9"/>
<path d="M3535 1351 c22 -10 51 -21 65 -25 14 -3 7 2 -15 13 -22 10 -51 21 -65 25 -14 3 -7 -2 15 -13z" fill="#61a4f9"/>
<path d="M3640 1310 c8 -5 20 -10 25 -10 6 0 3 5 -5 10 -8 5 -19 10 -25 10 -5 0 -3 -5 5 -10z" fill="#61a4f9"/>
<path d="M4202 1095 c3 -4 68 -27 144 -53 119 -40 139 -50 142 -69 4 -26 10 -28 34 -9 16 12 16 13 -2 28 -31 27 -51 35 -180 72 -123 36 -149 41 -138 31z" fill="#61a4f9"/>
<path d="M3410 1005 c25 -13 50 -24 55 -24 6 0 -10 11 -35 24 -25 13 -49 24 -55 24 -5 0 10 -11 35 -24z" fill="#61a4f9"/>
<path d="M3725 844 c169 -93 295 -154 319 -154 13 1 3 8 -24 19 -25 9 -125 59 -222 109 -96 51 -179 92 -184 92 -5 0 45 -30 111 -66z" fill="#61a4f9"/>
<path d="M3760 895 c0 -16 354 -175 389 -175 35 0 24 17 -16 25 -39 7 -156 54 -295 119 -43 19 -78 33 -78 31z" fill="#61a4f9"/>
<path d="M1395 1890 c-3 -5 0 -10 7 -10 7 0 107 -45 223 -99 247 -116 307 -137 145 -51 -144 77 -338 170 -356 170 -7 0 -16 -4 -19 -10z" fill="#61a4f9"/>
</g>
</svg>